<?xml version="1.0" encoding="iso-8859-1"?>
<!-- Generator: Adobe Illustrator 19.0.0, SVG Export Plug-In . SVG Version: 6.00 Build 0)  -->
<svg version="1.1" id="Capa_1" xmlns="http://www.w3.org/2000/svg" xmlns:xlink="http://www.w3.org/1999/xlink" x="0px" y="0px"
	 viewBox="0 0 490 490" style="enable-background:new 0 0 490 490;" xml:space="preserve">
<g>
	<ellipse cx="109.58" cy="110.149" rx="36.414" ry="36.603"/>
	<path d="M380.42,171.016c-60.52,0-109.581,49.316-109.581,110.149c0,44.337,26.117,82.453,63.68,99.921
		c0.54,1.867,1.13,3.761,1.717,5.652H124.84v-98.671c9.044-19.329,22.602-50.254,30.629-77.993
		c37.569-17.465,63.691-55.585,63.691-99.925C219.161,49.315,170.1,0,109.58,0C49.061,0,0,49.315,0,110.149
		c0,44.337,26.117,82.453,63.68,99.92c7.992,27.642,21.475,58.429,30.535,77.769v129.525h252.9
		c11.504,29.226,24.368,54.98,26.882,59.911L380.42,490l6.463-12.726c3.506-6.983,27.544-55.124,39.426-96.183
		C463.878,363.626,490,325.506,490,281.165C490,220.332,440.94,171.016,380.42,171.016z M89.23,188.176l-12.636-5.876
		c-27.924-12.985-45.968-41.307-45.968-72.151c0-43.85,35.42-79.524,78.955-79.524c43.536,0,78.955,35.674,78.955,79.524
		c0,30.848-18.047,59.171-45.976,72.154l-12.635,5.873l-3.873,13.385c-4.281,14.796-10.4,30.876-16.482,45.407
		c-6.045-14.436-12.166-30.52-16.469-45.405L89.23,188.176z M413.399,353.32l-12.634,5.874l-3.873,13.384
		c-4.281,14.794-10.4,30.876-16.482,45.407c-6.045-14.436-12.165-30.518-16.469-45.405l-3.871-13.387l-12.636-5.876
		c-27.924-12.986-45.968-41.307-45.968-72.151c0-43.85,35.42-79.524,78.956-79.524c43.536,0,78.955,35.674,78.955,79.524
		C459.375,312.014,441.328,340.336,413.399,353.32z"/>
	<ellipse cx="380.419" cy="281.165" rx="36.414" ry="36.603"/>
</g>
<g>
</g>
<g>
</g>
<g>
</g>
<g>
</g>
<g>
</g>
<g>
</g>
<g>
</g>
<g>
</g>
<g>
</g>
<g>
</g>
<g>
</g>
<g>
</g>
<g>
</g>
<g>
</g>
<g>
</g>
</svg>
